<?xml version="1.0" encoding="UTF-8"?>
<svg id="Camada_1" data-name="Camada 1" xmlns="http://www.w3.org/2000/svg" viewBox="0 0 2000 2000">
  <defs>
    <style>
      .cls-1 {
        fill: #fff;
        stroke-width: 0px;
      }
    </style>
  </defs>
  <path class="cls-1" d="M1284.44,301.05c77.16,61.37,135.41,151.04,174.73,268.99,39.32,117.98,58.99,260.74,58.99,428.31s-19.67,311.64-58.99,429.98c-39.32,118.33-97.57,208.36-174.73,270.08-77.19,61.75-172,92.59-284.43,92.59-169.78,0-298.61-68.33-386.43-205.06-87.84-136.69-131.75-332.57-131.75-587.6s43.91-448.5,131.75-584.84c87.81-136.34,216.64-204.51,386.43-204.51,112.43,0,207.24,30.68,284.43,92.05ZM796.6,541.38c-45.96,95.93-68.91,248.26-68.91,456.97,0,155.82,9.18,277.46,27.57,364.92l431.07-876.45c-21.31-31.58-47.05-54.37-77.19-68.36-30.14-13.96-66.5-20.96-109.12-20.96-89.67,0-157.49,47.98-203.42,143.88ZM1203.95,1459.2c45.58-95.55,68.36-249.15,68.36-460.85,0-144.04-7.73-256.15-23.14-336.26l-424.46,866.54c21.31,25.74,46.28,44.48,74.97,56.23,28.66,11.78,62.1,17.65,100.33,17.65,90.38,0,158.36-47.76,203.93-143.3Z"/>
</svg>