<?xml version="1.0" encoding="UTF-8"?>
<svg width="100%" id="Camada_1" data-name="Camada 1" xmlns="http://www.w3.org/2000/svg" version="1.1" viewBox="0 0 380.9 581.5">
  <defs>
    <style>
      .cls-1 {
        fill: #000;
        stroke-width: 0px;
      }
    </style>
  </defs>
  <path class="cls-1" d="M295,33.8c28.4,22.6,49.8,55.5,64.2,98.9,14.5,43.4,21.7,95.8,21.7,157.4s-7.2,114.5-21.7,158c-14.5,43.5-35.9,76.6-64.2,99.3-28.4,22.7-63.2,34-104.5,34-62.4,0-109.8-25.1-142-75.4C16.1,455.9,0,383.9,0,290.1S16.1,125.3,48.4,75.2C80.7,25.1,128.1,0,190.5,0s76.2,11.3,104.5,33.8ZM115.7,122.2c-16.9,35.3-25.3,91.3-25.3,168s3.4,102,10.1,134.1L258.9,102.1c-7.8-11.6-17.3-20-28.4-25.1-11.1-5.1-24.4-7.7-40.1-7.7-33,0-57.9,17.6-74.8,52.9ZM265.4,459.5c16.8-35.1,25.1-91.6,25.1-169.4s-2.8-94.2-8.5-123.6L126,485c7.8,9.5,17,16.4,27.6,20.7,10.5,4.3,22.8,6.5,36.9,6.5,33.2,0,58.2-17.6,75-52.7Z"/>
</svg>