<?xml version="1.0" encoding="UTF-8"?>
<svg  width="100%" id="Camada_1" data-name="Camada 1" xmlns="http://www.w3.org/2000/svg" viewBox="0 0 500 86.1">
  <defs>
    <style>
      .cls-1 {
        fill: #0c0a09;
        stroke-width: 0px;
      }
    </style>
  </defs>
  <path class="cls-1" d="M0,84.64V27.82h10.39l.91,7.37c2.33-2.83,5.11-5.02,8.34-6.56,3.23-1.54,6.56-2.31,10.01-2.31,5.24,0,9.19,1.46,11.87,4.39,2.67,2.92,4.01,7.09,4.01,12.51v41.43h-12.05v-35.46c0-3.52-.21-6.22-.62-8.13-.41-1.9-1.2-3.3-2.37-4.2-1.17-.9-2.88-1.35-5.14-1.35-2.58,0-5.01.79-7.29,2.37-2.28,1.58-4.28,3.57-6,5.97v40.79H0Z"/>
  <path class="cls-1" d="M76.62,67.53c0,3.3.65,5.69,1.96,7.16,1.31,1.47,3.36,2.21,6.16,2.21,2.51,0,4.98-.75,7.4-2.26,2.42-1.51,4.35-3.41,5.78-5.7V27.82h12.05v56.82h-10.39l-.75-7.26c-2.08,2.76-4.73,4.91-7.94,6.43-3.21,1.52-6.54,2.29-9.98,2.29-5.42,0-9.5-1.49-12.24-4.47-2.74-2.98-4.12-7.17-4.12-12.59V27.82h12.05v39.71Z"/>
  <path class="cls-1" d="M176.66,29.95c2.01,2.42,3.01,6.57,3.01,12.46v42.24h-10.71v-40.57c0-2.19-.08-3.85-.24-4.98-.16-1.13-.52-1.97-1.08-2.53-.56-.56-1.39-.83-2.5-.83-3.05,0-5.85,1.87-8.39,5.6v43.32h-9.74v-40.57c0-2.19-.08-3.85-.24-4.98-.16-1.13-.52-1.97-1.08-2.53-.56-.56-1.39-.83-2.5-.83-1.51,0-2.94.44-4.3,1.32-1.36.88-2.73,2.31-4.09,4.28v43.32h-10.76V27.82h9.09l.81,6.13c1.79-2.51,3.63-4.41,5.52-5.7,1.88-1.29,4.1-1.94,6.65-1.94,5.06,0,8.3,2.42,9.74,7.26,1.72-2.33,3.59-4.12,5.6-5.38,2.01-1.26,4.3-1.88,6.89-1.88,3.55,0,6.33,1.21,8.34,3.63Z"/>
  <path class="cls-1" d="M203.72,60.11c.32,5.56,1.89,9.72,4.71,12.48,2.82,2.76,6.41,4.14,10.79,4.14,2.69,0,5.22-.41,7.59-1.24,2.37-.82,4.81-2.06,7.32-3.71l5.22,7.21c-2.69,2.22-5.83,3.96-9.42,5.22-3.59,1.26-7.35,1.88-11.3,1.88-5.78,0-10.73-1.25-14.85-3.74-4.13-2.49-7.25-5.98-9.36-10.47-2.12-4.48-3.17-9.69-3.17-15.61s1.05-10.82,3.15-15.36c2.1-4.54,5.1-8.11,9.01-10.71,3.91-2.6,8.5-3.9,13.78-3.9,4.99,0,9.32,1.14,12.99,3.42,3.68,2.28,6.51,5.55,8.5,9.82,1.99,4.27,2.99,9.33,2.99,15.17,0,1.97-.09,3.77-.27,5.38h-37.67ZM207.81,39.42c-2.4,2.78-3.79,6.93-4.14,12.46h26.31c-.11-5.35-1.26-9.45-3.44-12.32-2.19-2.87-5.27-4.3-9.26-4.3s-7.07,1.39-9.47,4.17Z"/>
  <path class="cls-1" d="M302.95,26.74c1.33.25,2.73.61,4.2,1.08l-2.04,20.93h-8.61v-11.57c-3.98.14-7.43,1.73-10.33,4.76-2.91,3.03-5.22,7.36-6.94,13v21.09h11.46v8.61h-31.86v-8.61h8.34v-39.66h-8.34v-8.56h17.54l2.21,13.18c2.19-4.91,4.87-8.58,8.04-11,3.17-2.42,7.17-3.63,11.97-3.63,1.58,0,3.03.13,4.36.38Z"/>
  <path class="cls-1" d="M325.39,27.82h28.52v48h15.44v8.82h-44.5v-8.82h17v-39.17h-16.47v-8.82ZM351.22,2.15c1.47,1.44,2.21,3.23,2.21,5.38s-.74,4.01-2.21,5.46-3.37,2.18-5.7,2.18-4.18-.73-5.65-2.18c-1.47-1.45-2.21-3.27-2.21-5.46s.73-3.95,2.21-5.38c1.47-1.43,3.35-2.15,5.65-2.15s4.23.72,5.7,2.15Z"/>
  <path class="cls-1" d="M422,74.9c2.28-.86,4.55-2.08,6.81-3.66l5.6,7.75c-2.55,2.15-5.59,3.87-9.12,5.17-3.53,1.29-7.15,1.94-10.84,1.94-5.74,0-10.69-1.22-14.85-3.66-4.16-2.44-7.34-5.89-9.52-10.36-2.19-4.47-3.28-9.66-3.28-15.58s1.11-10.99,3.34-15.55c2.22-4.56,5.44-8.13,9.66-10.74,4.21-2.6,9.17-3.9,14.88-3.9,7.61,0,14.17,2.28,19.69,6.83l-5.54,7.59c-4.59-3.16-9.24-4.74-13.94-4.74s-8.42,1.7-11.17,5.11c-2.74,3.41-4.12,8.54-4.12,15.39s1.36,11.76,4.09,14.93c2.73,3.17,6.44,4.76,11.14,4.76,2.51,0,4.91-.43,7.18-1.29Z"/>
  <path class="cls-1" d="M488.59,13.37c3.77,3,6.61,7.37,8.53,13.13,1.92,5.76,2.88,12.73,2.88,20.91s-.96,15.21-2.88,20.99c-1.92,5.78-4.76,10.17-8.53,13.18-3.77,3.01-8.39,4.52-13.88,4.52-8.29,0-14.57-3.34-18.86-10.01-4.29-6.67-6.43-16.23-6.43-28.68s2.14-21.89,6.43-28.55c4.29-6.65,10.57-9.98,18.86-9.98,5.49,0,10.12,1.5,13.88,4.49ZM464.78,25.1c-2.24,4.68-3.36,12.12-3.36,22.3,0,7.61.45,13.54,1.35,17.81l21.04-42.78c-1.04-1.54-2.3-2.65-3.77-3.34-1.47-.68-3.25-1.02-5.33-1.02-4.38,0-7.69,2.34-9.93,7.02ZM484.66,69.9c2.22-4.66,3.34-12.16,3.34-22.49,0-7.03-.38-12.5-1.13-16.41l-20.72,42.3c1.04,1.26,2.26,2.17,3.66,2.74,1.4.57,3.03.86,4.9.86,4.41,0,7.73-2.33,9.95-7Z"/>
</svg>