{"accessors" : [{"bufferView" : 0, "byteOffset" : 0, "componentType" : 5125, "count" : 144588, "type" : "SCALAR", "max" : [144587], "min" : [0]}, {"bufferView" : 1, "byteOffset" : 0, "componentType" : 5126, "count" : 144588, "type" : "VEC3", "max" : [20.09000015258789, 30.07438087463379, 7.300000190734863], "min" : [-0.09000054746866226, -0.08218879252672195, -0.30000001192092896], "name" : "POSITION"}, {"bufferView" : 1, "byteOffset" : 12, "componentType" : 5126, "count" : 144588, "type" : "VEC3", "max" : [1.0000039339065552, 0.9999991059303284, 1.0000044107437134], "min" : [-1.0000040531158447, -1.0000001192092896, -1.0000044107437134], "name" : "NORMAL"}, {"bufferView" : 1, "byteOffset" : 24, "componentType" : 5126, "count" : 144588, "type" : "VEC2", "max" : [1.4976340532302856, 1.002676010131836], "min" : [0.8694384098052979, 0.17358529567718506], "name" : "TEXCOORD_0"}], "asset" : {"generator" : "Aspose.3D 24.2.0", "version" : "2.0"}, "buffers" : [{"uri" : "buffer.bin", "byteLength" : 5205176}], "bufferViews" : [{"buffer" : 0, "byteOffset" : 0, "byteLength" : 578352, "target" : 34963}, {"buffer" : 0, "byteOffset" : 578356, "byteLength" : 4626816, "byteStride" : 32, "target" : 34962}], "meshes" : [{"primitives" : [{"attributes" : {"POSITION" : 1, "NORMAL" : 2, "TEXCOORD_0" : 3}, "indices" : 0, "mode" : 4}], "name" : "Geometry"}], "nodes" : [{"matrix" : [0.05248437827320111, -0.0019834242111470674, -0.029007862135534402, 0, -0.0006567067570626352, -0.05992582854137274, 0.0029092627700538203, 0, -0.029068174581675446, -0.002227353144121648, -0.05244120635969969, 0, -0.413232118040778, 0.926288694402085, 0.43001084703295955, 1], "mesh" : 0, "name" : "Object_35"}, {"children" : [0], "name" : "Scene"}, {"children" : [1], "name" : "Root"}], "scene" : 0, "scenes" : [{"nodes" : [2]}]}